<svg xmlns="http://www.w3.org/2000/svg" viewBox="0 0 24 24" width="100%" height="100%"><path d="M12 4.62c-2.4 0-2.69 0-3.64.06A5 5 0 0 0 6.7 5a3 3 0 0 0-1 .68q-.45.42-.67 1a5 5 0 0 0-.31 1.67v7.27q0 .86.28 1.68.23.57.67 1 .43.45 1 .68.8.3 1.66.3c1 .05 1.24.06 3.64.06s2.69 0 3.64-.06q.86 0 1.67-.3A3 3 0 0 0 19 17.3a5 5 0 0 0 .31-1.67c0-1 .05-1.23.05-3.64s0-2.68-.05-3.63q0-.86-.31-1.67A3 3 0 0 0 17.31 5q-.81-.3-1.67-.3c-.95-.07-1.24-.08-3.64-.08M12 3c2.45 0 2.75 0 3.71.06q1.13.02 2.19.41a4.6 4.6 0 0 1 2.63 2.63q.4 1.06.41 2.19c0 1 .06 1.26.06 3.71s0 2.75-.06 3.71a7 7 0 0 1-.41 2.19 4.6 4.6 0 0 1-2.63 2.63q-1.06.4-2.19.41c-1 0-1.26.06-3.71.06s-2.75 0-3.71-.06a7 7 0 0 1-2.19-.41 4.6 4.6 0 0 1-2.63-2.63q-.4-1.06-.41-2.19C3 14.75 3 14.45 3 12s0-2.75.06-3.71q.02-1.12.41-2.18.32-.91 1-1.6.69-.67 1.59-1 1.06-.38 2.19-.41C9.25 3 9.55 3 12 3m0 4.38a4.62 4.62 0 0 1 0 9.24 4.62 4.62 0 1 1 0-9.24M12 15a3 3 0 1 0 .1-6 3 3 0 0 0-.1 6m5.89-7.81a1.08 1.08 0 1 1-2.16 0 1.08 1.08 0 0 1 2.16 0"/></svg>