<svg xmlns="http://www.w3.org/2000/svg" viewBox="0 0 24 24" width="100%" height="100%"><path d="M6.92 5.01a7 7 0 0 1 5.26-2c1.7-.06 3.36.58 4.57 1.77A5.6 5.6 0 0 1 18.5 9a8.3 8.3 0 0 1-1.5 5.11 4.7 4.7 0 0 1-3.89 2q-.8 0-1.49-.39-.61-.3-.95-.9 0 .2-.74 2.82-.58 1.88-1.79 3.41a.2.2 0 0 1-.15 0 .1.1 0 0 1-.08-.1 11 11 0 0 1 0-3.94l1.33-5.59-.08-.2q-.16-.27-.19-.58a5 5 0 0 1-.08-.86c-.02-.67.18-1.34.56-1.89.3-.47.82-.76 1.38-.77.38-.02.75.15 1 .44q.36.48.35 1.1 0 .5-.16 1l-.39 1.38-.35 1.27c-.14.48-.02 1 .3 1.4.32.38.8.59 1.3.57 1-.04 1.9-.66 2.28-1.59.63-1.2.94-2.53.9-3.88a4 4 0 0 0-1.1-2.88 4.2 4.2 0 0 0-3.09-1.1 4.7 4.7 0 0 0-3.55 1.45c-.9.94-1.4 2.2-1.38 3.5-.02.72.22 1.43.66 2 .15.14.22.36.16.56a2 2 0 0 0-.12.4q-.06.22-.08.44a.32.32 0 0 1-.5.24 3 3 0 0 1-1.54-1.5A5.5 5.5 0 0 1 5 9.48c.02-1.69.71-3.3 1.92-4.47"/></svg>